<svg xmlns="http://www.w3.org/2000/svg" viewBox="0 0 1923.08 1083.78"><defs><style>.cls-1{opacity:0.38;}.cls-2{fill:#cce0f0;stroke:#cce0f0;}.cls-3{fill:#f9f7f9;stroke:#f9f7f9;}.cls-4{fill:#fffdff;stroke:#fffdff;}.cls-5{fill:#c5deec;stroke:#c5deec;}.cls-6{fill:#95c1db;stroke:#95c1db;}.cls-7{fill:#fefcfe;stroke:#fefcfe;}.cls-8{fill:#faf8fa;stroke:#faf8fa;}.cls-9{fill:#aecfe5;stroke:#aecfe5;}.cls-10{fill:#aed0ea;stroke:#aed0ea;}.cls-11{fill:#7cbbdd;stroke:#7cbbdd;}.cls-12{fill:#9dcce4;stroke:#9dcce4;}.cls-13{fill:#7bb8db;stroke:#7bb8db;}.cls-14{fill:#f9fbff;stroke:#f9fbff;}.cls-15{fill:#d6e5f3;stroke:#d6e5f3;}.cls-16{fill:#b1d1e7;stroke:#b1d1e7;}.cls-17{fill:#9ecbe3;stroke:#9ecbe3;}.cls-18{fill:#eff7fb;stroke:#eff7fb;}.cls-19{fill:#fffeff;stroke:#fffeff;}.cls-20{fill:#ebf5fd;stroke:#ebf5fd;}.cls-21{fill:#accfe6;stroke:#accfe6;}.cls-22{fill:#d5e5f3;stroke:#d5e5f3;}.cls-23{fill:#e9f3fb;stroke:#e9f3fb;}.cls-24{fill:#93c6e0;stroke:#93c6e0;}.cls-25{fill:#7cb8d9;stroke:#7cb8d9;}.cls-26{fill:#f6fbfe;stroke:#f6fbfe;}.cls-27{fill:#f5f7fd;stroke:#f5f7fd;}.cls-28{fill:#a5cce6;stroke:#a5cce6;}.cls-29{fill:#8bbedc;stroke:#8bbedc;}.cls-30{fill:#bcdcf0;stroke:#bcdcf0;}.cls-31{fill:#fefcff;stroke:#fefcff;}.cls-32{fill:#b9d9ef;stroke:#b9d9ef;}.cls-33{fill:#a3cfeb;stroke:#a3cfeb;}.cls-34{fill:#97c2dc;stroke:#97c2dc;}.cls-35{fill:#add0e5;stroke:#add0e5;}.cls-36{fill:#c1dbed;stroke:#c1dbed;}.cls-37{fill:#eaf4fc;stroke:#eaf4fc;}.cls-38{fill:#deebfa;stroke:#deebfa;}.cls-39{fill:#e0eef8;stroke:#e0eef8;}.cls-40{fill:#d0e3f2;stroke:#d0e3f2;}.cls-41{fill:#fbfbff;stroke:#fbfbff;}.cls-42{fill:#f2f7fc;stroke:#f2f7fc;}.cls-43{fill:#f5fafd;stroke:#f5fafd;}.cls-44{fill:#9cbfd6;stroke:#9cbfd6;}.cls-45{fill:#aecbe2;stroke:#aecbe2;}.cls-46{fill:#daeaf8;stroke:#daeaf8;}.cls-47{fill:#e4effa;stroke:#e4effa;}.cls-48{fill:#ecf6fc;stroke:#ecf6fc;}.cls-49{fill:#fcfdff;stroke:#fcfdff;}.cls-50{fill:#cde0ef;stroke:#cde0ef;}.cls-51{fill:#c4e1f0;stroke:#c4e1f0;}.cls-52{fill:#d6e5f1;stroke:#d6e5f1;}.cls-53{fill:#8ab9da;stroke:#8ab9da;}.cls-54{fill:#92c0de;stroke:#92c0de;}.cls-55{fill:#77b3d2;stroke:#77b3d2;}.cls-56{fill:#92bcd9;stroke:#92bcd9;}.cls-57{fill:#d1e4f1;stroke:#d1e4f1;}.cls-58{fill:#c0deef;stroke:#c0deef;}.cls-59{fill:#8fbed9;stroke:#8fbed9;}.cls-60{fill:#fdfbfd;stroke:#fdfbfd;}.cls-61{fill:#c0def1;stroke:#c0def1;}.cls-62{fill:#e4eff8;stroke:#e4eff8;}.cls-63{fill:#cde4f3;stroke:#cde4f3;}.cls-64{fill:#f9fafb;stroke:#f9fafb;}.cls-65{fill:#c2dfee;stroke:#c2dfee;}.cls-66{fill:#d2e7f3;stroke:#d2e7f3;}.cls-67{fill:#d1e8f7;stroke:#d1e8f7;}.cls-68{fill:#d7e8f3;stroke:#d7e8f3;}.cls-69{fill:#d9eaf5;stroke:#d9eaf5;}.cls-70{fill:#e0ebf4;stroke:#e0ebf4;}.cls-71{fill:#fafbfe;stroke:#fafbfe;}.cls-72{fill:#e5f1f8;stroke:#e5f1f8;}.cls-73{fill:#f0f6fb;stroke:#f0f6fb;}.cls-74{fill:#b9daf0;stroke:#b9daf0;}.cls-75{fill:#e2f0f8;stroke:#e2f0f8;}.cls-76{fill:#dfedf7;stroke:#dfedf7;}.cls-77{fill:#ebf3f7;stroke:#ebf3f7;}.cls-78{fill:#e2edf6;stroke:#e2edf6;}.cls-79{fill:#e6f1fb;stroke:#e6f1fb;}.cls-80{fill:#e5f0fb;stroke:#e5f0fb;}.cls-81{fill:#e3f1f9;stroke:#e3f1f9;}.cls-82{fill:#a4caea;stroke:#a4caea;}.cls-83{fill:#cae3f1;stroke:#cae3f1;}.cls-84{fill:#d9e9f7;stroke:#d9e9f7;}.cls-85{fill:#d8e8f6;stroke:#d8e8f6;}.cls-86{fill:#d6e9f6;stroke:#d6e9f6;}.cls-87{fill:#c2daed;stroke:#c2daed;}.cls-88{fill:#cce4ef;stroke:#cce4ef;}.cls-89{fill:#81a9c9;stroke:#81a9c9;}.cls-90{fill:#eef4f9;stroke:#eef4f9;}.cls-91{fill:#1a5590;stroke:#1a5590;}.cls-92{fill:#e5f0f9;stroke:#e5f0f9;}.cls-93{fill:#c0dcf0;stroke:#c0dcf0;}.cls-94{fill:#8dadcb;stroke:#8dadcb;}.cls-95{fill:#e2effc;stroke:#e2effc;}.cls-96{fill:#b5d2e7;stroke:#b5d2e7;}.cls-97{fill:#c3d3e4;stroke:#c3d3e4;}.cls-98{fill:#deedf7;stroke:#deedf7;}.cls-99{fill:#dbecf7;stroke:#dbecf7;}.cls-100{fill:#bedaee;stroke:#bedaee;}.cls-101{fill:#eaf5f8;stroke:#eaf5f8;}.cls-102{fill:#b1d0e9;stroke:#b1d0e9;}.cls-103{fill:#c2d9ea;stroke:#c2d9ea;}.cls-104{fill:#96c3e7;stroke:#96c3e7;}.cls-105{fill:#f8fafe;stroke:#f8fafe;}.cls-106{fill:#fcfdfe;stroke:#fcfdfe;}.cls-107{fill:#ecf3fe;stroke:#ecf3fe;}.cls-108{fill:#f5faff;stroke:#f5faff;}.cls-109{fill:#9eccea;stroke:#9eccea;}.cls-110{fill:#d9e8f6;stroke:#d9e8f6;}.cls-111{fill:#a7d2ec;stroke:#a7d2ec;}.cls-112{fill:#fbfcff;stroke:#fbfcff;}.cls-113{fill:#cee5f4;stroke:#cee5f4;}.cls-114{fill:#e9f5fc;stroke:#e9f5fc;}.cls-115{fill:#a2ceea;stroke:#a2ceea;}.cls-116{fill:#aad1e9;stroke:#aad1e9;}.cls-117{fill:#73b6d8;stroke:#73b6d8;}.cls-118{fill:#bedbf0;stroke:#bedbf0;}.cls-119{fill:#ebf7fa;stroke:#ebf7fa;}.cls-120{fill:#c6e0f2;stroke:#c6e0f2;}.cls-121{fill:#9fc8e2;stroke:#9fc8e2;}.cls-122{fill:#b9d9ed;stroke:#b9d9ed;}.cls-123{fill:#e8eef3;stroke:#e8eef3;}.cls-124{fill:#c4deee;stroke:#c4deee;}.cls-125{fill:#7ecde3;stroke:#7ecde3;}.cls-126{fill:#e3edf5;stroke:#e3edf5;}.cls-127{fill:#d3e8f6;stroke:#d3e8f6;}.cls-128{fill:#f1f7fe;stroke:#f1f7fe;}.cls-129{fill:#cce4f5;stroke:#cce4f5;}.cls-130{fill:#cbe4f2;stroke:#cbe4f2;}.cls-131{fill:#aacde6;stroke:#aacde6;}.cls-132{fill:#eff5fa;stroke:#eff5fa;}.cls-133{fill:#e3eff6;stroke:#e3eff6;}.cls-134{fill:#dde9f0;stroke:#dde9f0;}.cls-135{fill:#d4dce2;stroke:#d4dce2;}.cls-136{fill:#fdfbff;stroke:#fdfbff;}.cls-137{fill:#f4f9fe;stroke:#f4f9fe;}.cls-138{fill:#eff7fd;stroke:#eff7fd;}.cls-139{fill:#d2e9f8;stroke:#d2e9f8;}.cls-140{fill:#eff5fc;stroke:#eff5fc;}.cls-141{fill:#f0f8fe;stroke:#f0f8fe;}.cls-142{fill:#f7f9ff;stroke:#f7f9ff;}.cls-143{fill:#e6ebf0;stroke:#e6ebf0;}.cls-144{fill:#d5e6f1;stroke:#d5e6f1;}.cls-145{fill:#fafaff;stroke:#fafaff;}.cls-146{fill:#b8d6e9;stroke:#b8d6e9;}.cls-147{fill:#cae4f2;stroke:#cae4f2;}.cls-148{fill:#e5eff7;stroke:#e5eff7;}.cls-149{fill:#e9f3fd;stroke:#e9f3fd;}.cls-150{fill:#c1dce8;stroke:#c1dce8;}.cls-151{fill:#e7e8e9;stroke:#e7e8e9;}.cls-152{fill:#bddbea;stroke:#bddbea;}.cls-153{fill:#a5cfe4;stroke:#a5cfe4;}.cls-154{fill:#d0e4f4;stroke:#d0e4f4;}.cls-155{fill:#e9f3f9;stroke:#e9f3f9;}.cls-156{fill:#a6cce0;stroke:#a6cce0;}.cls-157{fill:#cae1f2;stroke:#cae1f2;}.cls-158{fill:#f9fafd;stroke:#f9fafd;}.cls-159{fill:#acd4e7;stroke:#acd4e7;}.cls-160{fill:#eef4fb;stroke:#eef4fb;}.cls-161{fill:#d7eaf7;stroke:#d7eaf7;}.cls-162{fill:#cbe2f0;stroke:#cbe2f0;}.cls-163{fill:#d6e7f2;stroke:#d6e7f2;}.cls-164{fill:#f2f8fd;stroke:#f2f8fd;}.cls-165{fill:#edf3fc;stroke:#edf3fc;}.cls-166{fill:#deecf4;stroke:#deecf4;}.cls-167{fill:#d3e6f5;stroke:#d3e6f5;}.cls-168{fill:#ebf3f9;stroke:#ebf3f9;}.cls-169{fill:#dfedf5;stroke:#dfedf5;}.cls-170{fill:#deeef5;stroke:#deeef5;}.cls-171{fill:#e3eef7;stroke:#e3eef7;}</style></defs><g id="Layer_1" data-name="Layer 1" class="cls-1"><polygon class="cls-2" points="1.68 697.92 1.68 796.92 21.68 766.92 1.68 697.92"/><polygon class="cls-3" points="1.68 100.92 1.68 1.92 1.68 1.92 1.68 100.92"/><polygon class="cls-4" points="1.68 995.92 1.68 1081.92 1.68 1081.92 1.68 995.92"/><polygon class="cls-5" points="1.68 697.92 21.68 766.92 71.68 716.92 1.68 697.92"/><polygon class="cls-6" points="1.68 398.92 1.68 498.92 71.68 451.92 1.68 398.92"/><polygon class="cls-4" points="1.68 1081.92 1.68 1081.92 1.68 896.92 1.68 1081.92"/><polygon class="cls-3" points="1.68 1.92 1.68 100.92 100.68 1.92 1.68 1.92"/><polygon class="cls-7" points="1.68 100.92 91.68 116.92 100.68 1.92 1.68 100.92"/><polygon class="cls-4" points="91.68 116.92 1.68 1.92 100.68 1.92 91.68 116.92"/><polygon class="cls-4" points="1.68 1.92 91.68 116.92 100.68 1.92 1.68 1.92"/><polygon class="cls-4" points="1.68 995.92 1.68 1081.92 100.68 1081.92 1.68 995.92"/><polygon class="cls-4" points="1.68 100.92 1.68 199.92 91.68 116.92 1.68 100.92"/><polygon class="cls-8" points="1.68 1.92 1.68 1.92 91.68 116.92 1.68 1.92"/><polygon class="cls-9" points="1.68 597.92 1.68 697.92 71.68 716.92 1.68 597.92"/><polygon class="cls-10" points="1.68 597.92 71.68 716.92 126.68 626.92 1.68 597.92"/><polygon class="cls-11" points="1.68 498.92 1.68 597.92 131.68 546.92 1.68 498.92"/><polygon class="cls-12" points="71.68 451.92 1.68 498.92 131.68 546.92 71.68 451.92"/><polygon class="cls-13" points="1.68 597.92 126.68 626.92 131.68 546.92 1.68 597.92"/><polygon class="cls-14" points="1.68 896.92 1.68 995.92 146.68 936.92 1.68 896.92"/><polygon class="cls-15" points="1.68 299.92 1.68 398.92 141.68 406.92 1.68 299.92"/><polygon class="cls-16" points="1.68 398.92 71.68 451.92 141.68 406.92 1.68 398.92"/><polygon class="cls-17" points="131.68 546.92 126.68 626.92 166.68 616.92 131.68 546.92"/><polygon class="cls-7" points="1.68 995.92 100.68 1081.92 146.68 936.92 1.68 995.92"/><polygon class="cls-18" points="1.68 796.92 1.68 896.92 146.68 936.92 1.68 796.92"/><polygon class="cls-19" points="100.68 1.92 91.68 116.92 186.68 111.92 100.68 1.92"/><polygon class="cls-20" points="21.68 766.92 1.68 796.92 146.68 936.92 21.68 766.92"/><polygon class="cls-21" points="71.68 451.92 131.68 546.92 141.68 406.92 71.68 451.92"/><polygon class="cls-22" points="71.68 716.92 21.68 766.92 211.68 826.92 71.68 716.92"/><polygon class="cls-23" points="21.68 766.92 146.68 936.92 211.68 826.92 21.68 766.92"/><polygon class="cls-7" points="146.68 936.92 100.68 1081.92 211.68 971.92 146.68 936.92"/><polygon class="cls-4" points="100.68 1081.92 199.68 1081.92 211.68 971.92 100.68 1081.92"/><polygon class="cls-24" points="141.68 406.92 131.68 546.92 206.68 536.92 141.68 406.92"/><polygon class="cls-25" points="131.68 546.92 166.68 616.92 206.68 536.92 131.68 546.92"/><polygon class="cls-19" points="100.68 1.92 186.68 111.92 206.68 11.92 100.68 1.92"/><polygon class="cls-19" points="199.68 1.92 100.68 1.92 206.68 11.92 199.68 1.92"/><polygon class="cls-26" points="146.68 936.92 211.68 971.92 246.68 876.92 146.68 936.92"/><polygon class="cls-27" points="211.68 826.92 146.68 936.92 246.68 876.92 211.68 826.92"/><polygon class="cls-28" points="126.68 626.92 71.68 716.92 166.68 616.92 126.68 626.92"/><polygon class="cls-4" points="1.68 199.92 1.68 299.92 91.68 116.92 1.68 199.92"/><polygon class="cls-29" points="206.68 536.92 166.68 616.92 271.68 571.92 206.68 536.92"/><polygon class="cls-30" points="166.68 616.92 71.68 716.92 211.68 826.92 166.68 616.92"/><polygon class="cls-31" points="91.68 116.92 1.68 299.92 141.68 406.92 91.68 116.92"/><polygon class="cls-19" points="91.68 116.92 141.68 406.92 186.68 111.92 91.68 116.92"/><polygon class="cls-4" points="211.68 971.92 199.68 1081.92 299.68 1081.92 211.68 971.92"/><polygon class="cls-19" points="199.68 1.92 206.68 11.92 299.68 1.92 199.68 1.92"/><polygon class="cls-32" points="166.68 616.92 211.68 826.92 296.68 656.92 166.68 616.92"/><polygon class="cls-33" points="271.68 571.92 166.68 616.92 296.68 656.92 271.68 571.92"/><polygon class="cls-19" points="186.68 111.92 141.68 406.92 276.68 341.92 186.68 111.92"/><polygon class="cls-34" points="206.68 536.92 271.68 571.92 331.68 496.92 206.68 536.92"/><polygon class="cls-35" points="276.68 341.92 206.68 536.92 331.68 496.92 276.68 341.92"/><polygon class="cls-19" points="206.68 11.92 186.68 111.92 299.68 1.92 206.68 11.92"/><polygon class="cls-36" points="141.68 406.92 206.68 536.92 276.68 341.92 141.68 406.92"/><polygon class="cls-37" points="211.68 826.92 246.68 876.92 351.68 811.92 211.68 826.92"/><polygon class="cls-38" points="351.68 776.92 211.68 826.92 351.68 811.92 351.68 776.92"/><polygon class="cls-39" points="341.68 696.92 211.68 826.92 351.68 776.92 341.68 696.92"/><polygon class="cls-40" points="296.68 656.92 211.68 826.92 341.68 696.92 296.68 656.92"/><polygon class="cls-19" points="299.68 1.92 186.68 111.92 441.68 86.92 299.68 1.92"/><polygon class="cls-19" points="398.68 1.92 299.68 1.92 441.68 86.92 398.68 1.92"/><polygon class="cls-41" points="299.68 1081.92 398.68 1081.92 451.68 936.92 299.68 1081.92"/><polygon class="cls-42" points="351.68 811.92 246.68 876.92 451.68 936.92 351.68 811.92"/><polygon class="cls-43" points="246.68 876.92 211.68 971.92 451.68 936.92 246.68 876.92"/><polygon class="cls-14" points="211.68 971.92 299.68 1081.92 451.68 936.92 211.68 971.92"/><polygon class="cls-19" points="186.68 111.92 276.68 341.92 441.68 86.92 186.68 111.92"/><polygon class="cls-44" points="271.68 571.92 296.68 656.92 331.68 496.92 271.68 571.92"/><polygon class="cls-19" points="398.68 1.92 441.68 86.92 498.68 1.92 398.68 1.92"/><polygon class="cls-19" points="441.68 86.92 276.68 341.92 491.68 131.92 441.68 86.92"/><polygon class="cls-19" points="461.68 96.92 441.68 86.92 491.68 131.92 461.68 96.92"/><polygon class="cls-45" points="331.68 496.92 296.68 656.92 341.68 696.92 331.68 496.92"/><polygon class="cls-46" points="341.68 696.92 351.68 776.92 521.68 781.92 341.68 696.92"/><polygon class="cls-47" points="351.68 776.92 351.68 811.92 521.68 781.92 351.68 776.92"/><polygon class="cls-48" points="351.68 811.92 451.68 936.92 521.68 781.92 351.68 811.92"/><polygon class="cls-49" points="451.68 936.92 398.68 1081.92 498.68 1081.92 451.68 936.92"/><polygon class="cls-19" points="441.68 86.92 461.68 96.92 498.68 1.92 441.68 86.92"/><polygon class="cls-50" points="451.68 936.92 498.68 1081.92 571.68 976.92 451.68 936.92"/><polygon class="cls-51" points="331.68 496.92 341.68 696.92 591.68 546.92 331.68 496.92"/><polygon class="cls-19" points="461.68 96.92 491.68 131.92 498.68 1.92 461.68 96.92"/><polygon class="cls-52" points="571.68 976.92 498.68 1081.92 597.68 1081.92 571.68 976.92"/><polygon class="cls-53" points="606.68 831.92 571.68 976.92 616.68 846.92 606.68 831.92"/><polygon class="cls-54" points="591.68 546.92 521.68 781.92 611.68 716.92 591.68 546.92"/><polygon class="cls-55" points="521.68 781.92 451.68 936.92 606.68 831.92 521.68 781.92"/><polygon class="cls-56" points="451.68 936.92 571.68 976.92 606.68 831.92 451.68 936.92"/><polygon class="cls-57" points="341.68 696.92 521.68 781.92 591.68 546.92 341.68 696.92"/><polygon class="cls-58" points="591.68 546.92 611.68 716.92 631.68 621.92 591.68 546.92"/><polygon class="cls-19" points="498.68 1.92 491.68 131.92 597.68 1.92 498.68 1.92"/><polygon class="cls-4" points="611.68 11.92 491.68 131.92 636.68 136.92 611.68 11.92"/><polygon class="cls-59" points="521.68 781.92 606.68 831.92 611.68 716.92 521.68 781.92"/><polygon class="cls-19" points="597.68 1.92 491.68 131.92 611.68 11.92 597.68 1.92"/><polygon class="cls-60" points="636.68 136.92 491.68 131.92 676.68 176.92 636.68 136.92"/><polygon class="cls-61" points="611.68 716.92 606.68 831.92 706.68 816.92 611.68 716.92"/><polygon class="cls-61" points="606.68 831.92 616.68 846.92 706.68 816.92 606.68 831.92"/><polygon class="cls-62" points="571.68 976.92 597.68 1081.92 697.68 1081.92 571.68 976.92"/><polygon class="cls-7" points="611.68 11.92 636.68 136.92 697.68 1.92 611.68 11.92"/><polygon class="cls-4" points="597.68 1.92 611.68 11.92 697.68 1.92 597.68 1.92"/><polygon class="cls-14" points="491.68 131.92 591.68 546.92 676.68 176.92 491.68 131.92"/><polygon class="cls-63" points="276.68 341.92 331.68 496.92 591.68 546.92 276.68 341.92"/><polygon class="cls-42" points="491.68 131.92 276.68 341.92 591.68 546.92 491.68 131.92"/><polygon class="cls-64" points="636.68 136.92 676.68 176.92 697.68 1.92 636.68 136.92"/><polygon class="cls-65" points="616.68 846.92 571.68 976.92 706.68 816.92 616.68 846.92"/><polygon class="cls-66" points="571.68 976.92 697.68 1081.92 706.68 816.92 571.68 976.92"/><polygon class="cls-67" points="631.68 621.92 611.68 716.92 836.68 736.92 631.68 621.92"/><polygon class="cls-68" points="611.68 716.92 706.68 816.92 836.68 736.92 611.68 716.92"/><polygon class="cls-69" points="706.68 816.92 697.68 1081.92 821.68 881.92 706.68 816.92"/><polygon class="cls-70" points="697.68 1081.92 796.68 1081.92 821.68 881.92 697.68 1081.92"/><polygon class="cls-71" points="697.68 1.92 676.68 176.92 796.68 1.92 697.68 1.92"/><polygon class="cls-72" points="676.68 176.92 591.68 546.92 871.68 341.92 676.68 176.92"/><polygon class="cls-73" points="796.68 1.92 676.68 176.92 851.68 171.92 796.68 1.92"/><polygon class="cls-74" points="706.68 816.92 821.68 881.92 836.68 736.92 706.68 816.92"/><polygon class="cls-61" points="836.68 736.92 821.68 881.92 891.68 786.92 836.68 736.92"/><polygon class="cls-75" points="851.68 171.92 676.68 176.92 871.68 341.92 851.68 171.92"/><polygon class="cls-76" points="821.68 881.92 796.68 1081.92 896.68 1081.92 821.68 881.92"/><polygon class="cls-77" points="796.68 1.92 851.68 171.92 896.68 1.92 796.68 1.92"/><polygon class="cls-78" points="591.68 546.92 631.68 621.92 871.68 341.92 591.68 546.92"/><polygon class="cls-79" points="631.68 621.92 836.68 736.92 971.68 501.92 631.68 621.92"/><polygon class="cls-80" points="871.68 341.92 631.68 621.92 971.68 501.92 871.68 341.92"/><polygon class="cls-81" points="971.68 501.92 836.68 736.92 1016.68 586.92 971.68 501.92"/><polygon class="cls-82" points="851.68 171.92 871.68 341.92 996.68 311.92 851.68 171.92"/><polygon class="cls-83" points="891.68 786.92 821.68 881.92 1051.68 891.92 891.68 786.92"/><polygon class="cls-84" points="821.68 881.92 896.68 1081.92 1051.68 891.92 821.68 881.92"/><polygon class="cls-85" points="896.68 1081.92 995.68 1081.92 1051.68 891.92 896.68 1081.92"/><polygon class="cls-86" points="836.68 736.92 891.68 786.92 1016.68 586.92 836.68 736.92"/><polygon class="cls-87" points="871.68 341.92 971.68 501.92 996.68 311.92 871.68 341.92"/><polygon class="cls-88" points="896.68 1.92 851.68 171.92 995.68 1.92 896.68 1.92"/><polygon class="cls-89" points="1051.68 891.92 995.68 1081.92 1081.68 1026.92 1051.68 891.92"/><polygon class="cls-90" points="971.68 501.92 1016.68 586.92 1076.68 501.92 971.68 501.92"/><polygon class="cls-91" points="1081.68 1026.92 995.68 1081.92 1094.68 1081.92 1081.68 1026.92"/><polygon class="cls-92" points="996.68 311.92 971.68 501.92 1076.68 501.92 996.68 311.92"/><polygon class="cls-93" points="996.68 311.92 1076.68 501.92 1141.68 331.92 996.68 311.92"/><polygon class="cls-94" points="1051.68 891.92 1081.68 1026.92 1136.68 911.92 1051.68 891.92"/><polygon class="cls-95" points="1016.68 586.92 891.68 786.92 1051.68 891.92 1016.68 586.92"/><polygon class="cls-96" points="995.68 1.92 851.68 171.92 996.68 311.92 995.68 1.92"/><polygon class="cls-97" points="1081.68 1026.92 1094.68 1081.92 1194.68 1081.92 1081.68 1026.92"/><polygon class="cls-98" points="1141.68 331.92 1076.68 501.92 1191.68 381.92 1141.68 331.92"/><polygon class="cls-99" points="995.68 1.92 996.68 311.92 1094.68 1.92 995.68 1.92"/><polygon class="cls-7" points="1194.68 1.92 1094.68 1.92 1221.68 151.92 1194.68 1.92"/><polygon class="cls-100" points="1094.68 1.92 996.68 311.92 1221.68 151.92 1094.68 1.92"/><polygon class="cls-101" points="996.68 311.92 1141.68 331.92 1221.68 151.92 996.68 311.92"/><polygon class="cls-102" points="1136.68 911.92 1081.68 1026.92 1194.68 1081.92 1136.68 911.92"/><polygon class="cls-14" points="1221.68 151.92 1141.68 331.92 1266.68 206.92 1221.68 151.92"/><polygon class="cls-103" points="1016.68 586.92 1051.68 891.92 1281.68 781.92 1016.68 586.92"/><polygon class="cls-104" points="1051.68 891.92 1136.68 911.92 1281.68 781.92 1051.68 891.92"/><polygon class="cls-26" points="1266.68 206.92 1141.68 331.92 1291.68 271.92 1266.68 206.92"/><polygon class="cls-105" points="1141.68 331.92 1191.68 381.92 1291.68 271.92 1141.68 331.92"/><polygon class="cls-106" points="1221.68 151.92 1266.68 206.92 1326.68 171.92 1221.68 151.92"/><polygon class="cls-107" points="1194.68 1.92 1221.68 151.92 1293.68 1.92 1194.68 1.92"/><polygon class="cls-108" points="1191.68 381.92 1076.68 501.92 1336.68 476.92 1191.68 381.92"/><polygon class="cls-109" points="1281.68 781.92 1136.68 911.92 1321.68 811.92 1281.68 781.92"/><polygon class="cls-110" points="1076.68 501.92 1016.68 586.92 1281.68 781.92 1076.68 501.92"/><polygon class="cls-111" points="1321.68 811.92 1136.68 911.92 1361.68 876.92 1321.68 811.92"/><polygon class="cls-112" points="1266.68 206.92 1291.68 271.92 1326.68 171.92 1266.68 206.92"/><polygon class="cls-113" points="1136.68 911.92 1194.68 1081.92 1293.68 1081.92 1136.68 911.92"/><polygon class="cls-85" points="1076.68 501.92 1281.68 781.92 1371.68 661.92 1076.68 501.92"/><polygon class="cls-114" points="1336.68 476.92 1076.68 501.92 1371.68 661.92 1336.68 476.92"/><polygon class="cls-115" points="1136.68 911.92 1293.68 1081.92 1361.68 876.92 1136.68 911.92"/><polygon class="cls-108" points="1293.68 1.92 1221.68 151.92 1326.68 171.92 1293.68 1.92"/><polygon class="cls-112" points="1326.68 171.92 1291.68 271.92 1396.68 241.92 1326.68 171.92"/><polygon class="cls-116" points="1293.68 1081.92 1393.68 1081.92 1396.68 1051.92 1293.68 1081.92"/><polygon class="cls-117" points="1336.68 476.92 1371.68 661.92 1401.68 626.92 1336.68 476.92"/><polygon class="cls-118" points="1281.68 781.92 1321.68 811.92 1371.68 661.92 1281.68 781.92"/><polygon class="cls-119" points="1291.68 271.92 1191.68 381.92 1336.68 476.92 1291.68 271.92"/><polygon class="cls-120" points="1321.68 811.92 1361.68 876.92 1426.68 806.92 1321.68 811.92"/><polygon class="cls-121" points="1371.68 661.92 1321.68 811.92 1426.68 806.92 1371.68 661.92"/><polygon class="cls-122" points="1361.68 876.92 1293.68 1081.92 1396.68 1051.92 1361.68 876.92"/><polygon class="cls-4" points="1293.68 1.92 1326.68 171.92 1393.68 1.92 1293.68 1.92"/><polygon class="cls-123" points="1426.68 806.92 1361.68 876.92 1481.68 836.92 1426.68 806.92"/><polygon class="cls-124" points="1396.68 1051.92 1393.68 1081.92 1492.68 1081.92 1396.68 1051.92"/><polygon class="cls-125" points="1336.68 476.92 1401.68 626.92 1491.68 501.92 1336.68 476.92"/><polygon class="cls-126" points="1291.68 271.92 1336.68 476.92 1396.68 241.92 1291.68 271.92"/><polygon class="cls-127" points="1361.68 876.92 1396.68 1051.92 1546.68 906.92 1361.68 876.92"/><polygon class="cls-128" points="1481.68 836.92 1361.68 876.92 1546.68 906.92 1481.68 836.92"/><polygon class="cls-98" points="1396.68 241.92 1336.68 476.92 1536.68 306.92 1396.68 241.92"/><polygon class="cls-129" points="1491.68 501.92 1401.68 626.92 1556.68 546.92 1491.68 501.92"/><polygon class="cls-76" points="1396.68 1051.92 1492.68 1081.92 1546.68 906.92 1396.68 1051.92"/><polygon class="cls-130" points="1336.68 476.92 1491.68 501.92 1536.68 306.92 1336.68 476.92"/><polygon class="cls-4" points="1393.68 1.92 1326.68 171.92 1492.68 1.92 1393.68 1.92"/><polygon class="cls-4" points="1326.68 171.92 1396.68 241.92 1492.68 1.92 1326.68 171.92"/><polygon class="cls-131" points="1401.68 626.92 1371.68 661.92 1426.68 806.92 1401.68 626.92"/><polygon class="cls-132" points="1491.68 501.92 1556.68 546.92 1606.68 496.92 1491.68 501.92"/><polygon class="cls-133" points="1536.68 306.92 1491.68 501.92 1631.68 416.92 1536.68 306.92"/><polygon class="cls-134" points="1491.68 501.92 1621.68 476.92 1631.68 416.92 1491.68 501.92"/><polygon class="cls-135" points="1491.68 501.92 1606.68 496.92 1621.68 476.92 1491.68 501.92"/><polygon class="cls-86" points="1546.68 906.92 1492.68 1081.92 1592.68 1081.92 1546.68 906.92"/><polygon class="cls-39" points="1401.68 626.92 1426.68 806.92 1481.68 836.92 1401.68 626.92"/><polygon class="cls-136" points="1492.68 1.92 1396.68 241.92 1536.68 306.92 1492.68 1.92"/><polygon class="cls-137" points="1481.68 836.92 1546.68 906.92 1681.68 766.92 1481.68 836.92"/><polygon class="cls-138" points="1401.68 626.92 1481.68 836.92 1556.68 546.92 1401.68 626.92"/><polygon class="cls-139" points="1546.68 906.92 1592.68 1081.92 1651.68 1066.92 1546.68 906.92"/><polygon class="cls-140" points="1546.68 906.92 1676.68 921.92 1696.68 791.92 1546.68 906.92"/><polygon class="cls-141" points="1681.68 766.92 1546.68 906.92 1696.68 791.92 1681.68 766.92"/><polygon class="cls-85" points="1592.68 1.92 1536.68 306.92 1691.68 76.92 1592.68 1.92"/><polygon class="cls-142" points="1691.68 1.92 1592.68 1.92 1691.68 76.92 1691.68 1.92"/><polygon class="cls-143" points="1556.68 546.92 1481.68 836.92 1681.68 766.92 1556.68 546.92"/><polygon class="cls-144" points="1546.68 906.92 1651.68 1066.92 1676.68 921.92 1546.68 906.92"/><polygon class="cls-145" points="1492.68 1.92 1536.68 306.92 1592.68 1.92 1492.68 1.92"/><polygon class="cls-146" points="1536.68 306.92 1631.68 416.92 1726.68 211.92 1536.68 306.92"/><polygon class="cls-147" points="1691.68 76.92 1536.68 306.92 1726.68 211.92 1691.68 76.92"/><polygon class="cls-148" points="1691.68 1.92 1691.68 76.92 1721.68 16.92 1691.68 1.92"/><polygon class="cls-127" points="1676.68 921.92 1651.68 1066.92 1691.68 1081.92 1676.68 921.92"/><polygon class="cls-33" points="1651.68 1066.92 1592.68 1081.92 1691.68 1081.92 1651.68 1066.92"/><polygon class="cls-149" points="1696.68 791.92 1676.68 921.92 1796.68 911.92 1696.68 791.92"/><polygon class="cls-75" points="1726.68 211.92 1631.68 416.92 1796.68 366.92 1726.68 211.92"/><polygon class="cls-150" points="1691.68 1.92 1721.68 16.92 1791.68 1.92 1691.68 1.92"/><polygon class="cls-151" points="1606.68 496.92 1556.68 546.92 1681.68 766.92 1606.68 496.92"/><polygon class="cls-152" points="1691.68 76.92 1726.68 211.92 1836.68 136.92 1691.68 76.92"/><polygon class="cls-153" points="1791.68 1.92 1691.68 76.92 1836.68 136.92 1791.68 1.92"/><polygon class="cls-154" points="1676.68 921.92 1791.68 1081.92 1796.68 911.92 1676.68 921.92"/><polygon class="cls-155" points="1631.68 416.92 1621.68 476.92 1796.68 366.92 1631.68 416.92"/><polygon class="cls-156" points="1721.68 16.92 1691.68 76.92 1791.68 1.92 1721.68 16.92"/><polygon class="cls-157" points="1676.68 921.92 1691.68 1081.92 1791.68 1081.92 1676.68 921.92"/><polygon class="cls-142" points="1796.68 366.92 1621.68 476.92 1866.68 441.92 1796.68 366.92"/><polygon class="cls-112" points="1866.68 441.92 1621.68 476.92 1876.68 516.92 1866.68 441.92"/><polygon class="cls-158" points="1621.68 476.92 1606.68 496.92 1876.68 516.92 1621.68 476.92"/><polygon class="cls-159" points="1791.68 1.92 1836.68 136.92 1890.68 1.92 1791.68 1.92"/><polygon class="cls-4" points="1606.68 496.92 1681.68 766.92 1876.68 516.92 1606.68 496.92"/><polygon class="cls-160" points="1796.68 911.92 1921.68 896.92 1921.68 796.92 1796.68 911.92"/><polygon class="cls-73" points="1696.68 791.92 1796.68 911.92 1921.68 796.92 1696.68 791.92"/><polygon class="cls-77" points="1921.68 1.92 1890.68 1.92 1921.68 100.92 1921.68 1.92"/><polygon class="cls-161" points="1890.68 1.92 1836.68 136.92 1921.68 100.92 1890.68 1.92"/><polygon class="cls-162" points="1836.68 136.92 1726.68 211.92 1921.68 199.92 1836.68 136.92"/><polygon class="cls-163" points="1921.68 100.92 1836.68 136.92 1921.68 199.92 1921.68 100.92"/><polygon class="cls-164" points="1696.68 791.92 1921.68 796.92 1921.68 697.92 1696.68 791.92"/><polygon class="cls-165" points="1681.68 766.92 1696.68 791.92 1921.68 697.92 1681.68 766.92"/><polygon class="cls-18" points="1796.68 366.92 1866.68 441.92 1921.68 398.92 1796.68 366.92"/><polygon class="cls-166" points="1921.68 398.92 1866.68 441.92 1921.68 498.92 1921.68 398.92"/><polygon class="cls-138" points="1866.68 441.92 1876.68 516.92 1921.68 498.92 1866.68 441.92"/><polygon class="cls-14" points="1681.68 766.92 1921.68 697.92 1921.68 597.92 1681.68 766.92"/><polygon class="cls-31" points="1876.68 516.92 1681.68 766.92 1921.68 597.92 1876.68 516.92"/><polygon class="cls-4" points="1921.68 498.92 1876.68 516.92 1921.68 597.92 1921.68 498.92"/><polygon class="cls-69" points="1791.68 1081.92 1890.68 1081.92 1921.68 995.92 1791.68 1081.92"/><polygon class="cls-167" points="1796.68 911.92 1791.68 1081.92 1921.68 995.92 1796.68 911.92"/><polygon class="cls-168" points="1921.68 896.92 1796.68 911.92 1921.68 995.92 1921.68 896.92"/><polygon class="cls-62" points="1921.68 995.92 1890.68 1081.92 1921.68 1081.92 1921.68 995.92"/><polygon class="cls-169" points="1921.68 199.92 1726.68 211.92 1921.68 299.92 1921.68 199.92"/><polygon class="cls-170" points="1726.68 211.92 1796.68 366.92 1921.68 299.92 1726.68 211.92"/><polygon class="cls-171" points="1796.68 366.92 1921.68 398.92 1921.68 299.92 1796.68 366.92"/></g></svg>